<svg width="71" height="58" viewBox="0 0 71 58" fill="none" xmlns="http://www.w3.org/2000/svg">
    <path d="M31.125 57.2407C31.125 57.2407 26.75 57.2407 26.75 52.5339C26.75 47.8271 31.125 33.7067 48.625 33.7067C66.125 33.7067 70.5 47.8271 70.5 52.5339C70.5 57.2407 66.125 57.2407 66.125 57.2407H31.125ZM48.625 28.9999C52.106 28.9999 55.4444 27.5122 57.9058 24.8641C60.3672 22.216 61.75 18.6244 61.75 14.8795C61.75 11.1345 60.3672 7.5429 57.9058 4.89481C55.4444 2.24672 52.106 0.759033 48.625 0.759033C45.144 0.759033 41.8056 2.24672 39.3442 4.89481C36.8828 7.5429 35.5 11.1345 35.5 14.8795C35.5 18.6244 36.8828 22.216 39.3442 24.8641C41.8056 27.5122 45.144 28.9999 48.625 28.9999Z" fill="white" />
    <path fill-rule="evenodd" clip-rule="evenodd" d="M23.32 57.2406C22.6714 55.7713 22.348 54.1602 22.375 52.5338C22.375 46.1561 25.35 39.5901 30.845 35.0245C28.1023 34.1153 25.2448 33.6707 22.375 33.7066C4.875 33.7066 0.5 47.827 0.5 52.5338C0.5 57.2406 4.875 57.2406 4.875 57.2406H23.32Z" fill="white" />
    <path d="M20.1875 28.9999C23.0883 28.9999 25.8703 27.7601 27.9215 25.5534C29.9727 23.3466 31.125 20.3537 31.125 17.2328C31.125 14.112 29.9727 11.119 27.9215 8.9123C25.8703 6.70556 23.0883 5.46582 20.1875 5.46582C17.2867 5.46582 14.5047 6.70556 12.4535 8.9123C10.4023 11.119 9.25 14.112 9.25 17.2328C9.25 20.3537 10.4023 23.3466 12.4535 25.5534C14.5047 27.7601 17.2867 28.9999 20.1875 28.9999Z" fill="white" />
</svg>